<svg id="svg" version="1.1" xmlns="http://www.w3.org/2000/svg" style="display: block;" viewBox="0 0 161 122"><path d="M0 0 C53.13 0 106.26 0 161 0 C161 40.26 161 80.52 161 122 C107.87 122 54.74 122 0 122 C0 81.74 0 41.48 0 0 Z " transform="translate(0,0)" style="fill: #BCDA5D;"/><path d="M0 0 C3.6116016 0.98693272 4.95429837 3.51152568 6.97265625 6.5390625 C5.98265625 6.5390625 4.99265625 6.5390625 3.97265625 6.5390625 C3.53953125 6.0440625 3.10640625 5.5490625 2.66015625 5.0390625 C0.96735973 3.25766951 0.96735973 3.25766951 -2.02734375 3.1015625 C-5.01599372 3.28845283 -5.01599372 3.28845283 -6.90234375 4.9765625 C-8.96532162 9.67556765 -8.55425139 14.51924987 -7.27734375 19.4140625 C-5.79168216 21.93968721 -4.60568255 23.13939287 -2.02734375 24.5390625 C0.47265625 25.2890625 0.47265625 25.2890625 2.97265625 24.5390625 C7.18814219 19.97228606 7.70822511 15.48876315 7.97265625 9.5390625 C8.30265625 9.5390625 8.63265625 9.5390625 8.97265625 9.5390625 C8.97265625 12.8390625 8.97265625 16.1390625 8.97265625 19.5390625 C9.96265625 19.8690625 10.95265625 20.1990625 11.97265625 20.5390625 C11.35390625 20.6215625 10.73515625 20.7040625 10.09765625 20.7890625 C7.80912996 21.33854333 7.80912996 21.33854333 6.84765625 23.4765625 C6.41453125 24.4975 6.41453125 24.4975 5.97265625 25.5390625 C3.97265625 27.5390625 3.97265625 27.5390625 0.53515625 27.7890625 C-3.02734375 27.5390625 -3.02734375 27.5390625 -6.02734375 25.5390625 C-5.36734375 28.5090625 -4.70734375 31.4790625 -4.02734375 34.5390625 C-4.68734375 34.5390625 -5.34734375 34.5390625 -6.02734375 34.5390625 C-6.42566406 33.12753906 -6.42566406 33.12753906 -6.83203125 31.6875 C-7.18523438 30.44226563 -7.5384375 29.19703125 -7.90234375 27.9140625 C-8.25039063 26.68429688 -8.5984375 25.45453125 -8.95703125 24.1875 C-10.32434263 17.86260363 -10.32434263 17.86260363 -14.08984375 13.1015625 C-19.52010239 12.06172574 -24.73286612 13.18717767 -30.02734375 14.5390625 C-29.73859375 15.73144531 -29.44984375 16.92382812 -29.15234375 18.15234375 C-28.77716677 19.71870762 -28.40217649 21.28511622 -28.02734375 22.8515625 C-27.8365625 23.63724609 -27.64578125 24.42292969 -27.44921875 25.23242188 C-27.17851563 26.3684082 -27.17851563 26.3684082 -26.90234375 27.52734375 C-26.73476563 28.22384033 -26.5671875 28.92033691 -26.39453125 29.63793945 C-26.02734375 31.5390625 -26.02734375 31.5390625 -26.02734375 34.5390625 C-24.70734375 34.8690625 -23.38734375 35.1990625 -22.02734375 35.5390625 C-22.02734375 36.8590625 -22.02734375 38.1790625 -22.02734375 39.5390625 C-20.61066905 41.2902198 -20.61066905 41.2902198 -19.02734375 42.5390625 C-19.68734375 42.5390625 -20.34734375 42.5390625 -21.02734375 42.5390625 C-21.02734375 43.1990625 -21.02734375 43.8590625 -21.02734375 44.5390625 C-23.00734375 44.5390625 -24.98734375 44.5390625 -27.02734375 44.5390625 C-27.02734375 45.1990625 -27.02734375 45.8590625 -27.02734375 46.5390625 C-21.08734375 46.5390625 -15.14734375 46.5390625 -9.02734375 46.5390625 C-8.69734375 45.5490625 -8.36734375 44.5590625 -8.02734375 43.5390625 C-7.69734375 44.5290625 -7.36734375 45.5190625 -7.02734375 46.5390625 C-6.69734375 46.2090625 -6.36734375 45.8790625 -6.02734375 45.5390625 C-4.06640625 45.3359375 -4.06640625 45.3359375 -1.65234375 45.2890625 C-0.86085937 45.26328125 -0.069375 45.2375 0.74609375 45.2109375 C3.47810986 45.6135504 4.14560353 46.55673618 5.97265625 48.5390625 C8.59836329 48.78976163 8.59836329 48.78976163 10.97265625 48.5390625 C10.97265625 47.8790625 10.97265625 47.2190625 10.97265625 46.5390625 C11.96265625 46.2090625 12.95265625 45.8790625 13.97265625 45.5390625 C14.30265625 44.5490625 14.63265625 43.5590625 14.97265625 42.5390625 C12.00265625 42.2090625 9.03265625 41.8790625 5.97265625 41.5390625 C9.61683966 39.10960689 10.90188989 39.4561844 15.16015625 39.9140625 C16.24683594 40.02492187 17.33351563 40.13578125 18.453125 40.25 C19.70029297 40.39308594 19.70029297 40.39308594 20.97265625 40.5390625 C19.48765625 41.0340625 19.48765625 41.0340625 17.97265625 41.5390625 C17.64265625 43.1890625 17.31265625 44.8390625 16.97265625 46.5390625 C18.99311067 45.93722501 20.99376664 45.26600154 22.97265625 44.5390625 C23.46765625 43.5490625 23.46765625 43.5490625 23.97265625 42.5390625 C23.31265625 42.2090625 22.65265625 41.8790625 21.97265625 41.5390625 C24.94265625 41.8690625 27.91265625 42.1990625 30.97265625 42.5390625 C30.64265625 43.5290625 30.31265625 44.5190625 29.97265625 45.5390625 C25.02265625 46.0340625 25.02265625 46.0340625 19.97265625 46.5390625 C19.64265625 47.5290625 19.31265625 48.5190625 18.97265625 49.5390625 C17.65618506 50.23843782 16.32243474 50.90635383 14.97265625 51.5390625 C14.47765625 52.5290625 14.47765625 52.5290625 13.97265625 53.5390625 C15.29265625 53.5390625 16.61265625 53.5390625 17.97265625 53.5390625 C17.97265625 57.8290625 17.97265625 62.1190625 17.97265625 66.5390625 C18.96265625 66.5390625 19.95265625 66.5390625 20.97265625 66.5390625 C20.97265625 67.1990625 20.97265625 67.8590625 20.97265625 68.5390625 C19.98265625 68.5390625 18.99265625 68.5390625 17.97265625 68.5390625 C17.97265625 77.1190625 17.97265625 85.6990625 17.97265625 94.5390625 C16.65265625 94.5390625 15.33265625 94.5390625 13.97265625 94.5390625 C13.64265625 93.5490625 13.31265625 92.5590625 12.97265625 91.5390625 C12.45703125 91.7040625 11.94140625 91.8690625 11.41015625 92.0390625 C8.24680128 92.68795583 5.19588466 92.5390625 1.97265625 92.5390625 C0.98265625 92.8690625 -0.00734375 93.1990625 -1.02734375 93.5390625 C-1.35734375 81.3290625 -1.68734375 69.1190625 -2.02734375 56.5390625 C-3.01734375 56.2090625 -4.00734375 55.8790625 -5.02734375 55.5390625 C-5.02734375 68.0790625 -5.02734375 80.6190625 -5.02734375 93.5390625 C-6.01734375 93.5390625 -7.00734375 93.5390625 -8.02734375 93.5390625 C-8.07669031 87.73666636 -8.11303777 81.93439169 -8.13720703 76.13183594 C-8.14728002 74.15687941 -8.16093896 72.18193784 -8.17822266 70.20703125 C-8.20241414 67.37235832 -8.21381366 64.53788212 -8.22265625 61.703125 C-8.23297882 60.81662262 -8.24330139 59.93012024 -8.25393677 59.01675415 C-8.25433445 56.85620298 -8.15006909 54.69612532 -8.02734375 52.5390625 C-7.36734375 51.8790625 -6.70734375 51.2190625 -6.02734375 50.5390625 C-9.52071193 48.21015038 -10.8874224 48.30355107 -15.0078125 48.34375 C-16.17119141 48.35019531 -17.33457031 48.35664062 -18.53320312 48.36328125 C-19.74814453 48.38003906 -20.96308594 48.39679687 -22.21484375 48.4140625 C-24.0546582 48.42759766 -24.0546582 48.42759766 -25.93164062 48.44140625 C-28.9637367 48.46500233 -31.99544313 48.49792409 -35.02734375 48.5390625 C-34.41466095 50.14285538 -33.79477225 51.74389663 -33.171875 53.34375 C-32.65524292 54.68155518 -32.65524292 54.68155518 -32.12817383 56.04638672 C-30.62896302 59.44113996 -29.0744068 61.41320456 -26.02734375 63.5390625 C-22.31733657 63.95737654 -22.31733657 63.95737654 -19.02734375 63.5390625 C-18.75801854 58.88853378 -18.75801854 58.88853378 -20.02734375 54.5390625 C-21.34734375 54.5390625 -22.66734375 54.5390625 -24.02734375 54.5390625 C-23.03734375 55.1990625 -22.04734375 55.8590625 -21.02734375 56.5390625 C-20.69734375 57.5290625 -20.36734375 58.5190625 -20.02734375 59.5390625 C-22.27734375 60.2890625 -22.27734375 60.2890625 -25.02734375 60.5390625 C-27.40234375 58.8515625 -27.40234375 58.8515625 -29.02734375 56.5390625 C-29.02734375 53.72893487 -28.27847241 52.79949222 -26.33984375 50.7890625 C-23.29320625 49.14223142 -21.44576907 49.04054214 -18.02734375 49.5390625 C-14.08624563 52.60436103 -12.26721757 55.62007197 -11.65234375 60.5390625 C-12.11382949 64.23094845 -13.16129893 65.26308573 -16.02734375 67.5390625 C-19.99242941 69.52160533 -24.71536695 69.08353562 -29.02734375 68.5390625 C-31.90234375 66.4765625 -31.90234375 66.4765625 -34.02734375 63.5390625 C-34.68669922 62.75982422 -34.68669922 62.75982422 -35.359375 61.96484375 C-38.96766783 57.50387077 -40.17366877 53.15802764 -41.02734375 47.5390625 C-42.30931641 47.55646484 -42.30931641 47.55646484 -43.6171875 47.57421875 C-44.72191406 47.58324219 -45.82664062 47.59226563 -46.96484375 47.6015625 C-48.06699219 47.61316406 -49.16914062 47.62476563 -50.3046875 47.63671875 C-53.02734375 47.5390625 -53.02734375 47.5390625 -54.02734375 46.5390625 C-54.06798207 44.87289135 -54.07006475 43.20518155 -54.02734375 41.5390625 C-52.04734375 41.0440625 -52.04734375 41.0440625 -50.02734375 40.5390625 C-51.01734375 42.1890625 -52.00734375 43.8390625 -53.02734375 45.5390625 C-51.04734375 45.0440625 -51.04734375 45.0440625 -49.02734375 44.5390625 C-48.69734375 43.2190625 -48.36734375 41.8990625 -48.02734375 40.5390625 C-45.55234375 40.0440625 -45.55234375 40.0440625 -43.02734375 39.5390625 C-42.79660156 38.48847656 -42.56585938 37.43789063 -42.328125 36.35546875 C-37.89639449 16.95567243 -37.89639449 16.95567243 -30.90234375 12.0390625 C-25.83295341 9.39416319 -21.63770102 9.11656624 -16.02734375 9.5390625 C-12.96484375 10.5390625 -12.96484375 10.5390625 -11.02734375 11.5390625 C-10.94484375 10.4665625 -10.86234375 9.3940625 -10.77734375 8.2890625 C-10.02734375 4.5390625 -10.02734375 4.5390625 -8.46484375 2.1015625 C-5.63940922 0.29038652 -3.35524585 -0.13797273 0 0 Z M12.97265625 88.5390625 C13.97265625 90.5390625 13.97265625 90.5390625 13.97265625 90.5390625 Z " transform="translate(64.02734375,13.4609375)" style="fill: #2C2D10;"/><path d="M0 0 C4.25326012 0.85065202 6.00588023 2.65440975 9.125 5.625 C9.764375 5.150625 10.40375 4.67625 11.0625 4.1875 C15.05898733 2.14847585 18.64868631 1.51622976 23.125 1.625 C25.625 2.5625 25.625 2.5625 27.125 4.625 C28.63378418 10.55955109 28.29399928 15.28370283 25.125 20.625 C22.9375 22.125 22.9375 22.125 21.125 22.625 C21.62 26.09 21.62 26.09 22.125 29.625 C18.33792538 31.99192164 15.12181274 33.77147152 10.75 34.75 C9.55375 35.03875 8.3575 35.3275 7.125 35.625 C6.63 36.615 6.63 36.615 6.125 37.625 C5.795 36.635 5.465 35.645 5.125 34.625 C4.465 34.625 3.805 34.625 3.125 34.625 C4.87954385 37.80734105 4.87954385 37.80734105 7.125 40.625 C8.78514616 40.98942233 10.45206064 41.32472883 12.125 41.625 C12.125 41.955 12.125 42.285 12.125 42.625 C13.775 42.955 15.425 43.285 17.125 43.625 C15.145 44.12 15.145 44.12 13.125 44.625 C13.125 45.285 13.125 45.945 13.125 46.625 C10.8125 47.3125 10.8125 47.3125 8.125 47.625 C7.67125 47.150625 7.2175 46.67625 6.75 46.1875 C4.64999517 44.16826459 3.30465982 44.1452652 0.4375 43.9375 C-0.37074219 43.87175781 -1.17898437 43.80601563 -2.01171875 43.73828125 C-2.62660156 43.70089844 -3.24148437 43.66351563 -3.875 43.625 C-4.205 44.285 -4.535 44.945 -4.875 45.625 C-5.535 45.295 -6.195 44.965 -6.875 44.625 C-8.25048156 44.54191362 -9.62985796 44.51763984 -11.0078125 44.52734375 C-11.81347656 44.53056641 -12.61914062 44.53378906 -13.44921875 44.53710938 C-14.29097656 44.54548828 -15.13273437 44.55386719 -16 44.5625 C-17.27423828 44.56926758 -17.27423828 44.56926758 -18.57421875 44.57617188 C-20.67450909 44.58797126 -22.7747633 44.60590694 -24.875 44.625 C-24.875 43.965 -24.875 43.305 -24.875 42.625 C-22.895 42.625 -20.915 42.625 -18.875 42.625 C-18.545 41.635 -18.215 40.645 -17.875 39.625 C-18.865 38.965 -19.855 38.305 -20.875 37.625 C-20.545 36.305 -20.215 34.985 -19.875 33.625 C-21.195 33.295 -22.515 32.965 -23.875 32.625 C-24.55168949 30.41971728 -25.21593498 28.21061391 -25.875 26 C-26.24625 24.77023438 -26.6175 23.54046875 -27 22.2734375 C-27.81227719 18.88653174 -28.04541013 16.08645571 -27.875 12.625 C-23.33473672 10.44567363 -20.01007061 8.96945907 -14.875 9.625 C-11.04953739 11.05094364 -9.28452525 11.79472963 -7.44921875 15.515625 C-7.01029297 17.17851563 -7.01029297 17.17851563 -6.5625 18.875 C-6.25183594 20.02871094 -5.94117187 21.18242188 -5.62109375 22.37109375 C-4.8338224 25.80458608 -4.20105411 29.11991828 -3.875 32.625 C-3.545 32.295 -3.215 31.965 -2.875 31.625 C-2.9768371 29.71075543 -2.9768371 29.71075543 -3.3125 27.5625 C-3.498125 26.263125 -3.68375 24.96375 -3.875 23.625 C-2.885 23.955 -1.895 24.285 -0.875 24.625 C2.58286015 25.12507794 2.58286015 25.12507794 6.125 24.625 C8.4139924 22.264038 8.4139924 22.264038 10.125 19.625 C11.115 19.295 12.105 18.965 13.125 18.625 C12.135 17.965 11.145 17.305 10.125 16.625 C9.1659375 18.0790625 9.1659375 18.0790625 8.1875 19.5625 C6.125 22.625 6.125 22.625 5.125 23.625 C1.29102094 23.40798232 -1.16029333 23.17043404 -4.25 20.8125 C-7.50941346 16.42482804 -7.54308796 10.91324552 -6.875 5.625 C-4.95642306 2.00922038 -4.01192199 0.87215695 0 0 Z " transform="translate(61.875,15.375)" style="fill: #2E3514;"/><path d="M0 0 C1.34275169 0.98731742 2.67732273 1.98594743 4 3 C7.37036311 2.75925978 8.58798021 2.41201979 11 0 C14.625 -0.125 14.625 -0.125 18 0 C16.73577236 2.52845528 15.47154472 2.76422764 13 4 C12.67 4.66 12.34 5.32 12 6 C13.32 6 14.64 6 16 6 C16 10.29 16 14.58 16 19 C16.99 19 17.98 19 19 19 C19 19.66 19 20.32 19 21 C18.01 21 17.02 21 16 21 C16 29.58 16 38.16 16 47 C14.68 47 13.36 47 12 47 C11.67 46.01 11.34 45.02 11 44 C10.2265625 44.2475 10.2265625 44.2475 9.4375 44.5 C6.27414503 45.14889333 3.22322841 45 0 45 C-1.485 45.495 -1.485 45.495 -3 46 C-3.33 33.79 -3.66 21.58 -4 9 C-4.99 8.67 -5.98 8.34 -7 8 C-7 20.54 -7 33.08 -7 46 C-7.99 46 -8.98 46 -10 46 C-10.04934656 40.19760386 -10.08569402 34.39532919 -10.10986328 28.59277344 C-10.11993627 26.61781691 -10.13359521 24.64287534 -10.15087891 22.66796875 C-10.17507039 19.83329582 -10.18646991 16.99881962 -10.1953125 14.1640625 C-10.20563507 13.27756012 -10.21595764 12.39105774 -10.22659302 11.47769165 C-10.2269907 9.31714048 -10.12272534 7.15706282 -10 5 C-9.34 4.34 -8.68 3.68 -8 3 C-8.66 2.34 -9.32 1.68 -10 1 C-6.43528609 -0.18823797 -3.7441664 -0.26274852 0 0 Z M11 41 C12 43 12 43 12 43 Z " transform="translate(66,61)" style="fill: #ADC95D;"/><path d="M0 0 C3.6116016 0.98693272 4.95429837 3.51152568 6.97265625 6.5390625 C5.98265625 6.5390625 4.99265625 6.5390625 3.97265625 6.5390625 C3.53953125 6.0440625 3.10640625 5.5490625 2.66015625 5.0390625 C0.96735973 3.25766951 0.96735973 3.25766951 -2.02734375 3.1015625 C-5.01599372 3.28845283 -5.01599372 3.28845283 -6.90234375 4.9765625 C-8.96532162 9.67556765 -8.55425139 14.51924987 -7.27734375 19.4140625 C-5.79168216 21.93968721 -4.60568255 23.13939287 -2.02734375 24.5390625 C0.47265625 25.2890625 0.47265625 25.2890625 2.97265625 24.5390625 C7.18814219 19.97228606 7.70822511 15.48876315 7.97265625 9.5390625 C8.30265625 9.5390625 8.63265625 9.5390625 8.97265625 9.5390625 C8.97265625 12.8390625 8.97265625 16.1390625 8.97265625 19.5390625 C9.96265625 19.8690625 10.95265625 20.1990625 11.97265625 20.5390625 C11.04453125 20.6628125 11.04453125 20.6628125 10.09765625 20.7890625 C7.80912996 21.33854333 7.80912996 21.33854333 6.84765625 23.4765625 C6.41453125 24.4975 6.41453125 24.4975 5.97265625 25.5390625 C3.97265625 27.5390625 3.97265625 27.5390625 0.53515625 27.7890625 C-3.02734375 27.5390625 -3.02734375 27.5390625 -6.02734375 25.5390625 C-5.36734375 28.5090625 -4.70734375 31.4790625 -4.02734375 34.5390625 C-4.68734375 34.5390625 -5.34734375 34.5390625 -6.02734375 34.5390625 C-6.42566406 33.12753906 -6.42566406 33.12753906 -6.83203125 31.6875 C-7.18523438 30.44226563 -7.5384375 29.19703125 -7.90234375 27.9140625 C-8.25039063 26.68429688 -8.5984375 25.45453125 -8.95703125 24.1875 C-10.32434263 17.86260363 -10.32434263 17.86260363 -14.08984375 13.1015625 C-19.52010239 12.06172574 -24.73286612 13.18717767 -30.02734375 14.5390625 C-29.73859375 15.73144531 -29.44984375 16.92382812 -29.15234375 18.15234375 C-28.77716677 19.71870762 -28.40217649 21.28511622 -28.02734375 22.8515625 C-27.8365625 23.63724609 -27.64578125 24.42292969 -27.44921875 25.23242188 C-27.26875 25.98974609 -27.08828125 26.74707031 -26.90234375 27.52734375 C-26.73476563 28.22384033 -26.5671875 28.92033691 -26.39453125 29.63793945 C-26.02734375 31.5390625 -26.02734375 31.5390625 -26.02734375 34.5390625 C-24.70734375 34.8690625 -23.38734375 35.1990625 -22.02734375 35.5390625 C-22.02734375 36.8590625 -22.02734375 38.1790625 -22.02734375 39.5390625 C-20.61066905 41.2902198 -20.61066905 41.2902198 -19.02734375 42.5390625 C-19.68734375 42.5390625 -20.34734375 42.5390625 -21.02734375 42.5390625 C-21.02734375 43.1990625 -21.02734375 43.8590625 -21.02734375 44.5390625 C-23.00734375 44.5390625 -24.98734375 44.5390625 -27.02734375 44.5390625 C-27.02734375 45.1990625 -27.02734375 45.8590625 -27.02734375 46.5390625 C-21.08734375 46.5390625 -15.14734375 46.5390625 -9.02734375 46.5390625 C-8.69734375 45.5490625 -8.36734375 44.5590625 -8.02734375 43.5390625 C-7.69734375 44.5290625 -7.36734375 45.5190625 -7.02734375 46.5390625 C-6.69734375 46.2090625 -6.36734375 45.8790625 -6.02734375 45.5390625 C-4.06640625 45.3359375 -4.06640625 45.3359375 -1.65234375 45.2890625 C-0.86085937 45.26328125 -0.069375 45.2375 0.74609375 45.2109375 C3.47810986 45.6135504 4.14560353 46.55673618 5.97265625 48.5390625 C8.59836329 48.78976163 8.59836329 48.78976163 10.97265625 48.5390625 C10.97265625 47.8790625 10.97265625 47.2190625 10.97265625 46.5390625 C11.96265625 46.2090625 12.95265625 45.8790625 13.97265625 45.5390625 C14.30265625 44.5490625 14.63265625 43.5590625 14.97265625 42.5390625 C12.00265625 42.2090625 9.03265625 41.8790625 5.97265625 41.5390625 C9.61683966 39.10960689 10.90188989 39.4561844 15.16015625 39.9140625 C16.24683594 40.02492187 17.33351562 40.13578125 18.453125 40.25 C19.28457031 40.34539063 20.11601563 40.44078125 20.97265625 40.5390625 C19.98265625 40.8690625 18.99265625 41.1990625 17.97265625 41.5390625 C17.64265625 43.1890625 17.31265625 44.8390625 16.97265625 46.5390625 C18.99311067 45.93722501 20.99376664 45.26600154 22.97265625 44.5390625 C23.46765625 43.5490625 23.46765625 43.5490625 23.97265625 42.5390625 C23.31265625 42.2090625 22.65265625 41.8790625 21.97265625 41.5390625 C24.94265625 41.8690625 27.91265625 42.1990625 30.97265625 42.5390625 C30.64265625 43.5290625 30.31265625 44.5190625 29.97265625 45.5390625 C28.791875 45.72082031 27.61109375 45.90257812 26.39453125 46.08984375 C24.83714252 46.34315396 23.27985602 46.59709327 21.72265625 46.8515625 C20.55669922 47.02848633 20.55669922 47.02848633 19.3671875 47.20898438 C15.06671269 47.92573018 12.35905639 48.64344499 8.97265625 51.5390625 C5.60229314 51.29832228 4.38467604 50.95108229 1.97265625 48.5390625 C-0.53109843 48.29390553 -2.93283854 48.16572592 -5.44140625 48.125 C-6.53586563 48.09595078 -6.53586563 48.09595078 -7.6524353 48.0663147 C-9.98561877 48.00647828 -12.31885148 47.96011827 -14.65234375 47.9140625 C-16.23309457 47.87588636 -17.81382451 47.83683485 -19.39453125 47.796875 C-23.27196605 47.70077372 -27.14949824 47.61675838 -31.02734375 47.5390625 C-31.02734375 44.5390625 -31.02734375 44.5390625 -29.02734375 41.5390625 C-29.02734375 42.1990625 -29.02734375 42.8590625 -29.02734375 43.5390625 C-27.04734375 43.0440625 -27.04734375 43.0440625 -25.02734375 42.5390625 C-25.68734375 41.8790625 -26.34734375 41.2190625 -27.02734375 40.5390625 C-26.03734375 39.2190625 -25.04734375 37.8990625 -24.02734375 36.5390625 C-26.50234375 37.0340625 -26.50234375 37.0340625 -29.02734375 37.5390625 C-28.93453125 36.1159375 -28.93453125 36.1159375 -28.83984375 34.6640625 C-28.80923834 29.69578419 -30.45158832 25.2006723 -32.02734375 20.5390625 C-32.68734375 20.5390625 -33.34734375 20.5390625 -34.02734375 20.5390625 C-37.94738489 30.39899589 -37.94738489 30.39899589 -41.02734375 40.5390625 C-41.68734375 40.2090625 -42.34734375 39.8790625 -43.02734375 39.5390625 C-38.09851757 17.09775895 -38.09851757 17.09775895 -30.90234375 12.0390625 C-25.83295341 9.39416319 -21.63770102 9.11656624 -16.02734375 9.5390625 C-12.96484375 10.5390625 -12.96484375 10.5390625 -11.02734375 11.5390625 C-10.94484375 10.4665625 -10.86234375 9.3940625 -10.77734375 8.2890625 C-10.02734375 4.5390625 -10.02734375 4.5390625 -8.46484375 2.1015625 C-5.63940922 0.29038652 -3.35524585 -0.13797273 0 0 Z M-32.02734375 30.5390625 C-31.36734375 30.5390625 -30.70734375 30.5390625 -30.02734375 30.5390625 C-29.97296768 32.12201032 -29.93438104 33.70550506 -29.90234375 35.2890625 C-29.87914062 36.17078125 -29.8559375 37.0525 -29.83203125 37.9609375 C-30.03594873 40.6526483 -30.66182654 42.23811224 -32.02734375 44.5390625 C-32.68734375 44.5390625 -33.34734375 44.5390625 -34.02734375 44.5390625 C-34.35734375 43.2190625 -34.68734375 41.8990625 -35.02734375 40.5390625 C-34.03734375 40.5390625 -33.04734375 40.5390625 -32.02734375 40.5390625 C-32.02734375 38.5590625 -32.02734375 36.5790625 -32.02734375 34.5390625 C-32.68734375 34.2090625 -33.34734375 33.8790625 -34.02734375 33.5390625 C-33.36734375 32.5490625 -32.70734375 31.5590625 -32.02734375 30.5390625 Z " transform="translate(64.02734375,13.4609375)" style="fill: #2C2D0C;"/><path d="M0 0 C3.72127957 2.34484855 4.12408751 3.85191303 5.20703125 8.05078125 C5.67109375 9.77941406 5.67109375 9.77941406 6.14453125 11.54296875 C6.41265625 12.63867188 6.68078125 13.734375 6.95703125 14.86328125 C7.29734375 16.16652344 7.29734375 16.16652344 7.64453125 17.49609375 C8.10475141 19.27944685 8.53519135 21.07046169 8.95703125 22.86328125 C7.96703125 22.86328125 6.97703125 22.86328125 5.95703125 22.86328125 C5.29703125 21.87328125 4.63703125 20.88328125 3.95703125 19.86328125 C3.29703125 19.86328125 2.63703125 19.86328125 1.95703125 19.86328125 C1.62703125 20.85328125 1.29703125 21.84328125 0.95703125 22.86328125 C-0.83455364 22.8902449 -2.62625348 22.90966042 -4.41796875 22.92578125 C-5.41570313 22.93738281 -6.4134375 22.94898437 -7.44140625 22.9609375 C-10.04296875 22.86328125 -10.04296875 22.86328125 -12.04296875 21.86328125 C-12.84090261 19.66459489 -13.53285587 17.42690358 -14.16796875 15.17578125 C-14.69777344 13.34466797 -14.69777344 13.34466797 -15.23828125 11.4765625 C-15.98483225 8.12433105 -16.20040685 5.27968806 -16.04296875 1.86328125 C-10.28571787 -0.90019917 -6.27039021 -2.34234089 0 0 Z " transform="translate(50.04296875,26.13671875)" style="fill: #BEBA9B;"/><path d="M0 0 C3.66923837 0.80723244 5.47651934 1.80897791 7.984375 4.57421875 C10.37355476 9.00074701 9.90177954 13.85120304 9.125 18.6875 C7.5625 22 7.5625 22 5.125 23.6875 C1.10935498 23.75920795 -1.04535602 23.32064935 -4.25 20.875 C-7.50941346 16.48732804 -7.54308796 10.97574552 -6.875 5.6875 C-4.95736411 2.0734939 -3.98510449 0.95295977 0 0 Z " transform="translate(61.875,15.3125)" style="fill: #F2F3F1;"/><path d="M0 0 C0.66 0 1.32 0 2 0 C2.05437607 1.58294782 2.09296271 3.16644256 2.125 4.75 C2.14820313 5.63171875 2.17140625 6.5134375 2.1953125 7.421875 C1.99139502 10.1135858 1.36551721 11.69904974 0 14 C-0.66 14 -1.32 14 -2 14 C-2.33 12.68 -2.66 11.36 -3 10 C-2.01 10 -1.02 10 0 10 C0 8.02 0 6.04 0 4 C-0.66 3.67 -1.32 3.34 -2 3 C-1.34 2.01 -0.68 1.02 0 0 Z M4 2 C4.66 2 5.32 2 6 2 C6 2.66 6 3.32 6 4 C7.32 4.33 8.64 4.66 10 5 C10 6.32 10 7.64 10 9 C11.4166747 10.7511573 11.4166747 10.7511573 13 12 C12.34 12 11.68 12 11 12 C11 12.66 11 13.32 11 14 C9.02 14 7.04 14 5 14 C5 14.66 5 15.32 5 16 C10.94 16 16.88 16 23 16 C23.33 15.01 23.66 14.02 24 13 C24.33 13.99 24.66 14.98 25 16 C25.33 15.67 25.66 15.34 26 15 C27.9609375 14.796875 27.9609375 14.796875 30.375 14.75 C31.16648437 14.72421875 31.95796875 14.6984375 32.7734375 14.671875 C35.50545361 15.0744879 36.17294728 16.01767368 38 18 C40.62570704 18.25069913 40.62570704 18.25069913 43 18 C43 17.34 43 16.68 43 16 C43.99 15.67 44.98 15.34 46 15 C46.33 14.01 46.66 13.02 47 12 C44.03 11.67 41.06 11.34 38 11 C41.64418341 8.57054439 42.92923364 8.9171219 47.1875 9.375 C48.27417969 9.48585938 49.36085937 9.59671875 50.48046875 9.7109375 C51.31191406 9.80632813 52.14335938 9.90171875 53 10 C52.01 10.33 51.02 10.66 50 11 C49.67 12.65 49.34 14.3 49 16 C51.02045442 15.39816251 53.02111039 14.72693904 55 14 C55.33 13.34 55.66 12.68 56 12 C55.34 11.67 54.68 11.34 54 11 C56.97 11.33 59.94 11.66 63 12 C62.67 12.99 62.34 13.98 62 15 C60.81921875 15.18175781 59.6384375 15.36351562 58.421875 15.55078125 C56.86448627 15.80409146 55.30719977 16.05803077 53.75 16.3125 C52.97269531 16.43044922 52.19539063 16.54839844 51.39453125 16.66992188 C47.09405644 17.38666768 44.38640014 18.10438249 41 21 C37.62963689 20.75925978 36.41201979 20.41201979 34 18 C31.49624532 17.75484303 29.09450521 17.62666342 26.5859375 17.5859375 C25.85629791 17.56657135 25.12665833 17.5472052 24.37490845 17.5272522 C22.04172498 17.46741578 19.70849227 17.42105577 17.375 17.375 C15.79424918 17.33682386 14.21351924 17.29777235 12.6328125 17.2578125 C8.7553777 17.16171122 4.87784551 17.07769588 1 17 C1 14 1 14 3 11 C3 11.66 3 12.32 3 13 C4.32 12.67 5.64 12.34 7 12 C6.34 11.34 5.68 10.68 5 10 C5.99 8.68 6.98 7.36 8 6 C6.35 6.33 4.7 6.66 3 7 C3.33 5.35 3.66 3.7 4 2 Z " transform="translate(32,44)" style="fill: #1C2A0E;"/><path d="M0 0 C0.66 0 1.32 0 2 0 C2 12.21 2 24.42 2 37 C-1.465 37.495 -1.465 37.495 -5 38 C-7 36 -7 36 -7.24291992 34.04467773 C-7.23881104 33.26552002 -7.23470215 32.4863623 -7.23046875 31.68359375 C-7.22853516 30.83732422 -7.22660156 29.99105469 -7.22460938 29.11914062 C-7.21236328 28.23419922 -7.20011719 27.34925781 -7.1875 26.4375 C-7.18685547 25.54869141 -7.18621094 24.65988281 -7.18554688 23.74414062 C-7.14021097 17.14021097 -7.14021097 17.14021097 -6 16 C-4.02 16 -2.04 16 0 16 C0 10.72 0 5.44 0 0 Z " transform="translate(131,67)" style="fill: #2E3A11;"/><path d="M0 0 C3.5 0.125 3.5 0.125 4.5 1.125 C4.77686887 4.26242768 4.73173629 7.41429277 4.75 10.5625 C4.770625 11.44744141 4.79125 12.33238281 4.8125 13.24414062 C4.81765625 14.09041016 4.8228125 14.93667969 4.828125 15.80859375 C4.84214355 16.97733032 4.84214355 16.97733032 4.85644531 18.16967773 C4.73881836 18.81493408 4.62119141 19.46019043 4.5 20.125 C1.5 22.125 1.5 22.125 -2.5 22.125 C-2.5 25.425 -2.5 28.725 -2.5 32.125 C-3.16 32.125 -3.82 32.125 -4.5 32.125 C-4.52465504 27.72843827 -4.54283842 23.3319128 -4.55493164 18.93530273 C-4.55997121 17.43855082 -4.56680287 15.94180384 -4.57543945 14.44506836 C-4.58752159 12.29800193 -4.59323191 10.15100038 -4.59765625 8.00390625 C-4.60289307 6.7104126 -4.60812988 5.41691895 -4.61352539 4.08422852 C-4.44973914 -0.18513307 -4.36816078 0.15600574 0 0 Z " transform="translate(103.5,82.875)" style="fill: #475028;"/><path d="M0 0 C3.93239315 3.93239315 4.90780214 10.21750806 5.1875 15.625 C5.125625 16.40875 5.06375 17.1925 5 18 C6.32 18 7.64 18 9 18 C8.34 19.32 7.68 20.64 7 22 C7.66 22.99 8.32 23.98 9 25 C7.35 25 5.7 25 4 25 C4 25.66 4 26.32 4 27 C3.01 26.67 2.02 26.34 1 26 C1.66666667 21.33333333 2.33333333 16.66666667 3 12 C2.34 12 1.68 12 1 12 C1 13.32 1 14.64 1 16 C1 18 1 20 1 22 C0.34 22.33 -0.32 22.66 -1 23 C-1 23.66 -1 24.32 -1 25 C-3.64 25 -6.28 25 -9 25 C-8.67 24.34 -8.34 23.68 -8 23 C-6.35 23 -4.7 23 -3 23 C-3 22.34 -3 21.68 -3 21 C-4.32 21 -5.64 21 -7 21 C-7.27793689 16.17267512 -6.40942122 12.72652492 -4.625 8.25 C-4.18414063 7.12078125 -3.74328125 5.9915625 -3.2890625 4.828125 C-2 2 -2 2 0 0 Z " transform="translate(31,32)" style="fill: #A3E37E;"/><path d="M0 0 C3.5 0.125 3.5 0.125 4.5 1.125 C4.58858646 3.86394085 4.61523479 6.5775327 4.59765625 9.31640625 C4.5962413 10.13624496 4.59482635 10.95608368 4.59336853 11.80076599 C4.58775289 14.42971382 4.57519779 17.05857773 4.5625 19.6875 C4.55748701 21.46549357 4.55292376 23.24348846 4.54882812 25.02148438 C4.53777839 29.38935545 4.52050331 33.75716348 4.5 38.125 C3.84 38.125 3.18 38.125 2.5 38.125 C2.005 20.8 2.005 20.8 1.5 3.125 C0.51 2.795 -0.48 2.465 -1.5 2.125 C-1.5 14.665 -1.5 27.205 -1.5 40.125 C-2.49 40.125 -3.48 40.125 -4.5 40.125 C-4.52464775 34.58911467 -4.54283496 29.053261 -4.55493164 23.51733398 C-4.55997244 21.6325627 -4.56680498 19.74779535 -4.57543945 17.86303711 C-4.58751617 15.15998364 -4.59323068 12.45698169 -4.59765625 9.75390625 C-4.60281754 8.90599014 -4.60797882 8.05807404 -4.61329651 7.1844635 C-4.61349195 5.16428932 -4.56206211 3.14422066 -4.5 1.125 C-3.5 0.125 -3.5 0.125 0 0 Z " transform="translate(60.5,66.875)" style="fill: #2C3411;"/><path d="M0 0 C2 2 2 2 2.3125 5.25 C1.97286783 9.32558609 1.28091437 11.61795455 -1 15 C-3.6875 16.375 -3.6875 16.375 -6 17 C-6.4125 16.525625 -6.825 16.05125 -7.25 15.5625 C-9.2004723 13.82100687 -10.48852019 13.53446781 -13 13 C-13.60882353 5.08529412 -13.60882353 5.08529412 -11.5625 1.4375 C-7.84199261 -0.6496139 -4.18234503 -0.69436616 0 0 Z " transform="translate(86,20)" style="fill: #E4E4E4;"/><path d="M0 0 C3.5 0.125 3.5 0.125 4.5 1.125 C4.77686887 4.26242768 4.73173629 7.41429277 4.75 10.5625 C4.770625 11.44744141 4.79125 12.33238281 4.8125 13.24414062 C4.81765625 14.09041016 4.8228125 14.93667969 4.828125 15.80859375 C4.84214355 16.97733032 4.84214355 16.97733032 4.85644531 18.16967773 C4.73881836 18.81493408 4.62119141 19.46019043 4.5 20.125 C1.5 22.125 1.5 22.125 -1.125 21.8125 C-3.5 21.125 -3.5 21.125 -4.5 20.125 C-4.59860131 18.72151265 -4.63078937 17.31319523 -4.6328125 15.90625 C-4.63410156 15.05675781 -4.63539062 14.20726563 -4.63671875 13.33203125 C-4.63285156 12.43871094 -4.62898438 11.54539062 -4.625 10.625 C-4.62886719 9.73167969 -4.63273437 8.83835937 -4.63671875 7.91796875 C-4.63542969 7.06847656 -4.63414063 6.21898438 -4.6328125 5.34375 C-4.63168457 4.55935547 -4.63055664 3.77496094 -4.62939453 2.96679688 C-4.39197448 -0.41263121 -3.49681912 0.1248864 0 0 Z " transform="translate(70.5,82.875)" style="fill: #1D2902;"/><path d="M0 0 C2.2397148 2.2397148 1.18531833 7.42897488 1.1875 10.4375 C1.19974609 11.32244141 1.21199219 12.20738281 1.22460938 13.11914062 C1.22750977 14.38854492 1.22750977 14.38854492 1.23046875 15.68359375 C1.23457764 16.46275146 1.23868652 17.24190918 1.24291992 18.04467773 C1 20 1 20 -1 22 C-4 22.25 -4 22.25 -7 22 C-9 20 -9 20 -9.265625 17.46875 C-9.26046875 16.4890625 -9.2553125 15.509375 -9.25 14.5 C-9.25515625 13.5203125 -9.2603125 12.540625 -9.265625 11.53125 C-9 9 -9 9 -7 7 C-4.375 6.875 -4.375 6.875 -2 7 C-2 5.35 -2 3.7 -2 2 C-3.32 2 -4.64 2 -6 2 C-6 2.99 -6 3.98 -6 5 C-6.99 5 -7.98 5 -9 5 C-8.625 2.5625 -8.625 2.5625 -8 0 C-5.11795733 -1.44102133 -3.08226581 -0.65580124 0 0 Z " transform="translate(120,83)" style="fill: #425120;"/><path d="M0 0 C4.29942535 0.47771393 6.2935135 1.61689187 9 5 C9.37692979 6.32167047 9.71800274 7.65487308 10 9 C2.790975 12.3161515 -4.12944269 12.67942955 -12 13 C-14 7.375 -14 7.375 -14 4 C-13.01 4.33 -12.02 4.66 -11 5 C-7.54213985 5.50007794 -7.54213985 5.50007794 -4 5 C-1.52791204 2.64167228 -1.52791204 2.64167228 0 0 Z " transform="translate(72,35)" style="fill: #A8E883;"/><path d="M0 0 C1.65 0 3.3 0 5 0 C8.60452958 7.08097943 10.41643485 14.23813142 12 22 C11.01 22 10.02 22 9 22 C8.34 21.01 7.68 20.02 7 19 C6.34 19 5.68 19 5 19 C4.67 19.99 4.34 20.98 4 22 C3.01 22 2.02 22 1 22 C0.16788724 16.96145894 -0.1078534 12.1874338 -0.0625 7.0625 C-0.05798828 6.37865234 -0.05347656 5.69480469 -0.04882812 4.99023438 C-0.0371956 3.32678396 -0.01926694 1.6633795 0 0 Z " transform="translate(47,27)" style="fill: #E6E734;"/><path d="M0 0 C0.99 0.33 1.98 0.66 3 1 C4.35419682 1.01877105 5.70942289 0.99566967 7.0625 0.9375 C11 1 11 1 13 3 C13.33 2.01 13.66 1.02 14 0 C16.875 -0.1875 16.875 -0.1875 20 0 C20.66 0.99 21.32 1.98 22 3 C21.1028125 3.1546875 21.1028125 3.1546875 20.1875 3.3125 C17.71756736 4.08876455 16.67748765 5.07088921 15 7 C15.66 7 16.32 7 17 7 C17 6.34 17 5.68 17 5 C18.98 5 20.96 5 23 5 C23.33 5.99 23.66 6.98 24 8 C21.36 8 18.72 8 16 8 C15.67 8.66 15.34 9.32 15 10 C14.34 9.67 13.68 9.34 13 9 C11.62451844 8.91691362 10.24514204 8.89263984 8.8671875 8.90234375 C8.06152344 8.90556641 7.25585938 8.90878906 6.42578125 8.91210938 C5.16314453 8.92467773 5.16314453 8.92467773 3.875 8.9375 C2.60076172 8.94426758 2.60076172 8.94426758 1.30078125 8.95117188 C-0.79950909 8.96297126 -2.8997633 8.98090694 -5 9 C-5 8.34 -5 7.68 -5 7 C-3.02 7 -1.04 7 1 7 C1.33 6.01 1.66 5.02 2 4 C1.01 3.34 0.02 2.68 -1 2 C-0.67 1.34 -0.34 0.68 0 0 Z " transform="translate(42,51)" style="fill: #706A3F;"/><path d="M0 0 C1.62490954 -0.02698189 3.24994633 -0.04638757 4.875 -0.0625 C5.77992187 -0.07410156 6.68484375 -0.08570313 7.6171875 -0.09765625 C10 0 10 0 12 1 C11.34 2.32 10.68 3.64 10 5 C9.34 5 8.68 5 8 5 C8.33 7.31 8.66 9.62 9 12 C11.31 12 13.62 12 16 12 C15.34 11.67 14.68 11.34 14 11 C13.33333333 9.66666667 12.66666667 8.33333333 12 7 C13.32 6.67 14.64 6.34 16 6 C18.43769218 9.65653827 18.23944439 11.69000101 18 16 C17 17 17 17 13.75 17.3125 C9.28316874 16.94026406 8.01921645 16.26401778 5 13 C2.45672919 8.89822654 0.60361306 4.82890449 0 0 Z " transform="translate(28,61)" style="fill: #B2CC62;"/><path d="M0 0 C2.64 0 5.28 0 8 0 C8.02685938 2.14576637 8.04633088 4.29162645 8.0625 6.4375 C8.07410156 7.63246094 8.08570312 8.82742187 8.09765625 10.05859375 C8 13 8 13 7 14 C5.33382885 14.04063832 3.66611905 14.042721 2 14 C2.33 15.65 2.66 17.3 3 19 C3.66 19 4.32 19 5 19 C5.33 18.01 5.66 17.02 6 16 C6.66 16 7.32 16 8 16 C8 17.65 8 19.3 8 21 C5.6739143 21.38063221 3.33944736 21.71269945 1 22 C0 21 0 21 -0.11352539 18.95874023 C-0.10828857 18.08419189 -0.10305176 17.20964355 -0.09765625 16.30859375 C-0.09443359 15.36435547 -0.09121094 14.42011719 -0.08789062 13.44726562 C-0.07951172 12.45404297 -0.07113281 11.46082031 -0.0625 10.4375 C-0.05798828 9.44041016 -0.05347656 8.44332031 -0.04882812 7.41601562 C-0.03700007 4.94395151 -0.02051849 2.47200482 0 0 Z " transform="translate(87,83)" style="fill: #222E07;"/><path d="M0 0 C1.32 0.33 2.64 0.66 4 1 C4 12.55 4 24.1 4 36 C3.34 35.01 2.68 34.02 2 33 C1.34 34.32 0.68 35.64 0 37 C0 24.79 0 12.58 0 0 Z " transform="translate(59,69)" style="fill: #92A858;"/><path d="M0 0 C0.99 0 1.98 0 3 0 C3 4.29 3 8.58 3 13 C3.99 13 4.98 13 6 13 C6 13.66 6 14.32 6 15 C5.01 15 4.02 15 3 15 C3 23.25 3 31.5 3 40 C2.01 40 1.02 40 0 40 C-0.20036936 35.77134325 -0.38284805 31.54208354 -0.5625 27.3125 C-0.61857422 26.13365234 -0.67464844 24.95480469 -0.73242188 23.74023438 C-1.06107956 15.74289729 -0.79664191 7.96392699 0 0 Z " transform="translate(79,67)" style="fill: #28310F;"/><path d="M0 0 C0.33 1.32 0.66 2.64 1 4 C1.99 4 2.98 4 4 4 C4 3.01 4 2.02 4 1 C5.32 1 6.64 1 8 1 C8 2.65 8 4.3 8 6 C6.02 6.66 4.04 7.32 2 8 C1.97303635 9.79158489 1.95362083 11.58328473 1.9375 13.375 C1.92589844 14.37273437 1.91429688 15.37046875 1.90234375 16.3984375 C1.81993398 18.98432453 1.81993398 18.98432453 3 21 C1.68 20.67 0.36 20.34 -1 20 C-4.9126262 25.24750431 -4.9126262 25.24750431 -8 31 C-8.33 31 -8.66 31 -9 31 C-9 27.7 -9 24.4 -9 21 C-7.02 20.34 -5.04 19.68 -3 19 C-2.505 10.09 -2.505 10.09 -2 1 C-1.34 0.67 -0.68 0.34 0 0 Z " transform="translate(110,84)" style="fill: #A6C25D;"/><path d="M0 0 C1.32 0 2.64 0 4 0 C4.91658383 3.17053195 5.18832039 6.12823862 5.31640625 9.421875 C5.35830078 10.44667969 5.40019531 11.47148438 5.44335938 12.52734375 C5.48267578 13.59082031 5.52199219 14.65429688 5.5625 15.75 C5.60568359 16.82894531 5.64886719 17.90789062 5.69335938 19.01953125 C5.79928989 21.67956428 5.90136421 24.33968812 6 27 C5.01 26.67 4.02 26.34 3 26 C1.515 26.99 1.515 26.99 0 28 C0 19.75 0 11.5 0 3 C0.99 3 1.98 3 3 3 C3 2.34 3 1.68 3 1 C2.01 0.67 1.02 0.34 0 0 Z " transform="translate(82,79)" style="fill: #A9C959;"/><path d="M0 0 C-2 2 -2 2 -5 2 C-5 2.66 -5 3.32 -5 4 C-2.03 4.33 0.94 4.66 4 5 C4.66 6.65 5.32 8.3 6 10 C3.69 10.66 1.38 11.32 -1 12 C-0.67 10.35 -0.34 8.7 0 7 C-0.99 7 -1.98 7 -3 7 C-2.67 7.66 -2.34 8.32 -2 9 C-2.66 9 -3.32 9 -4 9 C-4 9.66 -4 10.32 -4 11 C-7.3 11 -10.6 11 -14 11 C-14 10.34 -14 9.68 -14 9 C-14.6492959 7.65812182 -15.31731862 6.32520503 -16 5 C-16.33 4.01 -16.66 3.02 -17 2 C-16 2 -15 2 -14 2 C-12.53899634 1.70023232 -11.08109025 1.38529023 -9.625 1.0625 C-8.83351563 0.88847656 -8.04203125 0.71445312 -7.2265625 0.53515625 C-1.62322275 -0.81161137 -1.62322275 -0.81161137 0 0 Z " transform="translate(82,48)" style="fill: #B6C773;"/><path d="M0 0 C-3 2 -3 2 -7 3 C-5.68 8.94 -4.36 14.88 -3 21 C-3.66 21 -4.32 21 -5 21 C-5.680625 19.1746875 -5.680625 19.1746875 -6.375 17.3125 C-7.54452941 14.1919073 -8.74562438 11.08769384 -10 8 C-14.26929495 14.30229255 -15.99219693 21.74101969 -18 29 C-18.66 28.67 -19.32 28.34 -20 28 C-15.34402886 6.80102525 -15.34402886 6.80102525 -8 0.375 C-4.69872523 -1.13808427 -3.37452527 -1.19100892 0 0 Z " transform="translate(41,25)" style="fill: #303810;"/><path d="M0 0 C3.0625 0.1875 3.0625 0.1875 5.0625 2.1875 C4.4025 2.1875 3.7425 2.1875 3.0625 2.1875 C3.3925 9.4475 3.7225 16.7075 4.0625 24.1875 C2.7425 24.1875 1.4225 24.1875 0.0625 24.1875 C-0.2675 16.9275 -0.5975 9.6675 -0.9375 2.1875 C-1.5975 2.1875 -2.2575 2.1875 -2.9375 2.1875 C-2.6075 9.1175 -2.2775 16.0475 -1.9375 23.1875 C-2.2675 23.1875 -2.5975 23.1875 -2.9375 23.1875 C-4.09687374 18.58681056 -4.08632637 14.14717972 -4.0625 9.4375 C-4.06636719 8.65761719 -4.07023437 7.87773438 -4.07421875 7.07421875 C-4.06236672 0.2593 -4.06236672 0.2593 0 0 Z " transform="translate(43.9375,24.8125)" style="fill: #C6C77F;"/><path d="M0 0 C3.3 0 6.6 0 10 0 C10.33 0.99 10.66 1.98 11 3 C9.68 3.33 8.36 3.66 7 4 C9.90483487 12.55681917 9.90483487 12.55681917 16 19 C18.67746572 19.94234827 21.19283726 20.47663068 24 21 C23.67 21.66 23.34 22.32 23 23 C18.32938059 23.4026396 15.97583407 23.56598376 11.875 21.1875 C7.43079032 16.92643083 3.19365095 10.35661655 2.8359375 4.15625 C2.89007812 3.4446875 2.94421875 2.733125 3 2 C2.01 1.67 1.02 1.34 0 1 C0 0.67 0 0.34 0 0 Z " transform="translate(22,58)" style="fill: #4F6C45;"/><path d="M0 0 C1.63001953 0.16628906 1.63001953 0.16628906 3.29296875 0.3359375 C4.12441406 0.43132813 4.95585938 0.52671875 5.8125 0.625 C4.8225 0.955 3.8325 1.285 2.8125 1.625 C2.4825 3.275 2.1525 4.925 1.8125 6.625 C3.83295442 6.02316251 5.83361039 5.35193904 7.8125 4.625 C8.1425 3.965 8.4725 3.305 8.8125 2.625 C8.1525 2.295 7.4925 1.965 6.8125 1.625 C9.7825 1.955 12.7525 2.285 15.8125 2.625 C15.4825 3.615 15.1525 4.605 14.8125 5.625 C13.63171875 5.80675781 12.4509375 5.98851562 11.234375 6.17578125 C9.67698627 6.42909146 8.11969977 6.68303077 6.5625 6.9375 C5.39654297 7.11442383 5.39654297 7.11442383 4.20703125 7.29492188 C-0.09344356 8.01166768 -2.80109986 8.72938249 -6.1875 11.625 C-9.55786311 11.38425978 -10.77548021 11.03701979 -13.1875 8.625 C-15.50515729 7.90572705 -17.83845874 7.2340107 -20.1875 6.625 C-20.1875 6.295 -20.1875 5.965 -20.1875 5.625 C-12.60691748 5.25218447 -12.60691748 5.25218447 -10.5 7.125 C-10.066875 7.62 -9.63375 8.115 -9.1875 8.625 C-6.56179296 8.87569913 -6.56179296 8.87569913 -4.1875 8.625 C-4.1875 7.965 -4.1875 7.305 -4.1875 6.625 C-3.1975 6.295 -2.2075 5.965 -1.1875 5.625 C-0.8575 4.635 -0.5275 3.645 -0.1875 2.625 C-3.1575 2.295 -6.1275 1.965 -9.1875 1.625 C-5.54331659 -0.80445561 -4.25826636 -0.4578781 0 0 Z " transform="translate(79.1875,53.375)" style="fill: #2B350B;"/><path d="M0 0 C2.29451856 2.29451856 2.95264495 3.88200901 3.08984375 7.12109375 C2.73841217 12.46465595 1.45670739 15.91480035 -2 20 C-2.66 20 -3.32 20 -4 20 C-4.33 20.66 -4.66 21.32 -5 22 C-5 21.34 -5 20.68 -5 20 C-5.78375 19.87625 -6.5675 19.7525 -7.375 19.625 C-10 19 -10 19 -12 17 C-12 16.34 -12 15.68 -12 15 C-11.4225 15.33 -10.845 15.66 -10.25 16 C-7.80116138 17.27075898 -7.80116138 17.27075898 -4 17 C-3.34 17 -2.68 17 -2 17 C-0.24582588 12.50492881 0.28362108 8.8215583 0 4 C-1.56977574 2.43022426 -3.14196387 2.79262919 -5.3125 2.75 C-8.10757134 2.8033241 -9.8849938 2.95399752 -12.5 4 C-14.85386047 7.13848062 -14.74564685 10.12111444 -15 14 C-15.33 14 -15.66 14 -16 14 C-16.29033164 10.61924938 -16.42884188 7.37249725 -16 4 C-11.36623747 -1.27734066 -6.61717001 -1.68437055 0 0 Z " transform="translate(87,18)" style="fill: #33371A;"/><path d="M0 0 C0.33 0 0.66 0 1 0 C1 5.28 1 10.56 1 16 C-0.98 16.33 -2.96 16.66 -5 17 C-5.02895976 20.12498063 -5.04678483 23.2499269 -5.0625 26.375 C-5.07087891 27.26445313 -5.07925781 28.15390625 -5.08789062 29.0703125 C-5.09111328 29.92109375 -5.09433594 30.771875 -5.09765625 31.6484375 C-5.10289307 32.43395996 -5.10812988 33.21948242 -5.11352539 34.02880859 C-5.12573953 36.07772668 -5.12573953 36.07772668 -4 38 C-5.65 37.34 -7.3 36.68 -9 36 C-9 29.4 -9 22.8 -9 16 C-5 14 -5 14 -1 14 C-0.67 9.38 -0.34 4.76 0 0 Z " transform="translate(130,67)" style="fill: #A8C266;"/><path d="M0 0 C0.33 0 0.66 0 1 0 C1 3.96 1 7.92 1 12 C0.67 12 0.34 12 0 12 C0 8.04 0 4.08 0 0 Z M3 1 C3.33 1 3.66 1 4 1 C4 10.9 4 20.8 4 31 C3.67 31 3.34 31 3 31 C2.34 27.7 1.68 24.4 1 21 C0.01 20.67 -0.98 20.34 -2 20 C-1.34 20 -0.68 20 0 20 C0 18.35 0 16.7 0 15 C-0.66 15 -1.32 15 -2 15 C-2.33 16.32 -2.66 17.64 -3 19 C-3.99 18.67 -4.98 18.34 -6 18 C-6 16.35 -6 14.7 -6 13 C-0.25 11.875 -0.25 11.875 2 13 C2.33 9.04 2.66 5.08 3 1 Z " transform="translate(95,84)" style="fill: #8EA25B;"/><path d="M0 0 C1.98 0.495 1.98 0.495 4 1 C4 6.61 4 12.22 4 18 C2.68 18.33 1.36 18.66 0 19 C-1.8855253 17.1144747 -1.13246689 14.42231169 -1.13671875 11.91796875 C-1.13285156 11.12003906 -1.12898438 10.32210937 -1.125 9.5 C-1.12886719 8.70207031 -1.13273437 7.90414062 -1.13671875 7.08203125 C-1.12660767 1.12660767 -1.12660767 1.12660767 0 0 Z " transform="translate(69,84)" style="fill: #879D51;"/><path d="M0 0 C0.33 0 0.66 0 1 0 C1 3.3 1 6.6 1 10 C1.99 10.33 2.98 10.66 4 11 C3.071875 11.12375 3.071875 11.12375 2.125 11.25 C-0.16352629 11.79948083 -0.16352629 11.79948083 -1.125 13.9375 C-1.558125 14.9584375 -1.558125 14.9584375 -2 16 C-4 18 -4 18 -7.4375 18.25 C-11 18 -11 18 -14 16 C-13.34 18.97 -12.68 21.94 -12 25 C-12.66 25 -13.32 25 -14 25 C-14.6483289 22.77155786 -15.29356369 20.5422154 -15.9375 18.3125 C-16.29714844 17.07113281 -16.65679687 15.82976563 -17.02734375 14.55078125 C-17.80726431 11.70360138 -18.47287216 8.90197746 -19 6 C-18.01 6.33 -17.02 6.66 -16 7 C-15.690625 7.78375 -15.38125 8.5675 -15.0625 9.375 C-13.82426231 12.43417548 -12.88102915 13.43601275 -10 15 C-7.5 15.75 -7.5 15.75 -5 15 C-0.78451406 10.43322356 -0.26443114 5.94970065 0 0 Z " transform="translate(72,23)" style="fill: #35411A;"/><path d="M0 0 C0.33 0 0.66 0 1 0 C1 8.25 1 16.5 1 25 C1.99 25.33 2.98 25.66 4 26 C2.68 26 1.36 26 0 26 C-0.33 25.01 -0.66 24.02 -1 23 C-2.32 23.33 -3.64 23.66 -5 24 C-5.33 23.34 -5.66 22.68 -6 22 C-5.34 21.67 -4.68 21.34 -4 21 C-3.67 14.73 -3.34 8.46 -3 2 C-2.34 2.66 -1.68 3.32 -1 4 C-0.67 2.68 -0.34 1.36 0 0 Z M-1 20 C0 22 0 22 0 22 Z " transform="translate(78,82)" style="fill: #A5C063;"/><path d="M0 0 C0.66666667 1.33333333 1.33333333 2.66666667 2 4 C2.391875 4.598125 2.78375 5.19625 3.1875 5.8125 C4.38513717 9.03690777 3.63753171 11.68483511 3 15 C2.01 15 1.02 15 0 15 C0.33 14.67 0.66 14.34 1 14 C0.91062197 12.47480724 0.75462854 10.95318071 0.5625 9.4375 C0.46066406 8.61121094 0.35882813 7.78492187 0.25390625 6.93359375 C0.17011719 6.29550781 0.08632813 5.65742187 0 5 C-1.65 4.67 -3.3 4.34 -5 4 C-5 4.66 -5 5.32 -5 6 C-4.34 6.33 -3.68 6.66 -3 7 C-2.67 7.99 -2.34 8.98 -2 10 C-4.25 10.75 -4.25 10.75 -7 11 C-9.375 9.3125 -9.375 9.3125 -11 7 C-11 4.18987237 -10.25112866 3.26042972 -8.3125 1.25 C-5.39572708 -0.32663401 -3.26709987 -0.22275681 0 0 Z " transform="translate(46,63)" style="fill: #506C3E;"/><path d="M0 0 C2.5 0.125 2.5 0.125 3.5 1.125 C3.58858646 3.86394085 3.61523479 6.5775327 3.59765625 9.31640625 C3.5962413 10.13624496 3.59482635 10.95608368 3.59336853 11.80076599 C3.58775289 14.42971382 3.57519779 17.05857773 3.5625 19.6875 C3.55748701 21.46549357 3.55292376 23.24348846 3.54882812 25.02148438 C3.53777839 29.38935545 3.52050331 33.75716348 3.5 38.125 C2.84 38.125 2.18 38.125 1.5 38.125 C1.005 20.8 1.005 20.8 0.5 3.125 C-0.82 2.465 -2.14 1.805 -3.5 1.125 C-2.5 0.125 -2.5 0.125 0 0 Z " transform="translate(61.5,66.875)" style="fill: #1F2A03;"/><path d="M0 0 C1.134375 0.020625 2.26875 0.04125 3.4375 0.0625 C3.7675 1.0525 4.0975 2.0425 4.4375 3.0625 C1.4675 2.5675 1.4675 2.5675 -1.5625 2.0625 C-1.61630578 4.85442205 -1.65607669 7.6453141 -1.6875 10.4375 C-1.70425781 11.2315625 -1.72101563 12.025625 -1.73828125 12.84375 C-1.75585473 14.91742015 -1.66585168 16.99133241 -1.5625 19.0625 C-0.9025 19.7225 -0.2425 20.3825 0.4375 21.0625 C-0.5525 21.0625 -1.5425 21.0625 -2.5625 21.0625 C-2.5625 24.6925 -2.5625 28.3225 -2.5625 32.0625 C-3.2225 32.0625 -3.8825 32.0625 -4.5625 32.0625 C-4.58715504 27.66593827 -4.60533842 23.2694128 -4.61743164 18.87280273 C-4.62247121 17.37605082 -4.62930287 15.87930384 -4.63793945 14.38256836 C-4.65002159 12.23550193 -4.65573191 10.08850038 -4.66015625 7.94140625 C-4.66539307 6.6479126 -4.67062988 5.35441895 -4.67602539 4.02172852 C-4.51089962 -0.28254994 -4.41826494 0.07751342 0 0 Z " transform="translate(103.5625,82.9375)" style="fill: #202705;"/><path d="M0 0 C1.32 0 2.64 0 4 0 C4 1.32 4 2.64 4 4 C6.97 4.495 6.97 4.495 10 5 C10 5.33 10 5.66 10 6 C8.02 6 6.04 6 4 6 C3.67 7.65 3.34 9.3 3 11 C2.34 9.68 1.68 8.36 1 7 C-3.455 7.495 -3.455 7.495 -8 8 C-8 7.34 -8 6.68 -8 6 C-8.66 6 -9.32 6 -10 6 C-10 5.34 -10 4.68 -10 4 C-7.03 4 -4.06 4 -1 4 C-0.67 2.68 -0.34 1.36 0 0 Z " transform="translate(52,45)" style="fill: #383E16;"/><path d="M0 0 C1.32 0.33 2.64 0.66 4 1 C5.45184478 5.53701494 6.23509196 9.18061476 6 14 C5.38125 14.28875 4.7625 14.5775 4.125 14.875 C1.86674235 15.93720042 1.86674235 15.93720042 0 18 C0 12.06 0 6.12 0 0 Z " transform="translate(49,29)" style="fill: #F8F907;"/><path d="M0 0 C1.2065625 0.0309375 1.2065625 0.0309375 2.4375 0.0625 C1.7775 0.7225 1.1175 1.3825 0.4375 2.0625 C0.19496187 4.27322977 0.19496187 4.27322977 0.3125 6.6875 C0.33054687 7.50476563 0.34859375 8.32203125 0.3671875 9.1640625 C0.39039062 9.79054688 0.41359375 10.41703125 0.4375 11.0625 C1.0975 11.0625 1.7575 11.0625 2.4375 11.0625 C2.7675 8.0925 3.0975 5.1225 3.4375 2.0625 C4.0975 2.3925 4.7575 2.7225 5.4375 3.0625 C5.46438151 4.70824566 5.48384123 6.35411413 5.5 8 C5.51160156 8.91652344 5.52320312 9.83304688 5.53515625 10.77734375 C5.4375 13.0625 5.4375 13.0625 4.4375 14.0625 C1.5 14.25 1.5 14.25 -1.5625 14.0625 C-3.5625 12.0625 -3.5625 12.0625 -3.79296875 9.49609375 C-3.77878906 8.50738281 -3.76460938 7.51867187 -3.75 6.5 C-3.74355469 5.50871094 -3.73710938 4.51742187 -3.73046875 3.49609375 C-3.49895201 0.14179305 -3.37848511 0.08240208 0 0 Z " transform="translate(114.5625,90.9375)" style="fill: #3B4B18;"/><path d="M0 0 C1.8125 0.125 1.8125 0.125 4 1 C6.60813604 5.00535178 7.72459126 8.23840031 7 13 C5 15.375 5 15.375 3 17 C2.34 16.34 1.68 15.68 1 15 C1.515625 14.649375 2.03125 14.29875 2.5625 13.9375 C4.35027567 11.94976086 4.35027567 11.94976086 3.875 8.625 C3.04127061 5.17097822 2.01599243 2.89251088 0 0 Z M-4 2 C-1.5625 2.1875 -1.5625 2.1875 1 3 C3.40769537 6.09560833 3.33127155 9.19037722 3 13 C2.34 13.66 1.68 14.32 1 15 C-1.125 14.625 -1.125 14.625 -3 14 C-2.01 13.67 -1.02 13.34 0 13 C0.26932521 8.34947128 0.26932521 8.34947128 -1 4 C-3.02463255 3.34786708 -3.02463255 3.34786708 -5 3 C-4.67 2.67 -4.34 2.34 -4 2 Z " transform="translate(45,64)" style="fill: #253A10;"/><path d="M0 0 C0.66 0 1.32 0 2 0 C4 3 4 3 4 7 C0.21292538 9.36692164 -3.00318726 11.14647152 -7.375 12.125 C-8.57125 12.41375 -9.7675 12.7025 -11 13 C-11.33 13.66 -11.66 14.32 -12 15 C-12.33 14.01 -12.66 13.02 -13 12 C-13.99 12.33 -14.98 12.66 -16 13 C-16 12.34 -16 11.68 -16 11 C-14.68 11 -13.36 11 -12 11 C-12 10.34 -12 9.68 -12 9 C-5.07 7.515 -5.07 7.515 2 6 C1.34 4.02 0.68 2.04 0 0 Z M-20 10 C-16 11 -16 11 -16 11 Z " transform="translate(80,38)" style="fill: #30411D;"/><path d="M0 0 C2 2 2 2 2.125 5.125 C2.08375 6.07375 2.0425 7.0225 2 8 C3.32 8 4.64 8 6 8 C5.34 9.32 4.68 10.64 4 12 C4.99 13.485 4.99 13.485 6 15 C4.35 15 2.7 15 1 15 C1 15.66 1 16.32 1 17 C0.01 16.67 -0.98 16.34 -2 16 C-1.855625 15.030625 -1.71125 14.06125 -1.5625 13.0625 C-0.93952558 8.71947831 -0.46492141 4.36234766 0 0 Z " transform="translate(34,42)" style="fill: #809160;"/><path d="M0 0 C1.49106457 2.98212913 1.11941467 5.71609658 1 9 C0 10 0 10 -3.5625 10.0625 C-4.696875 10.041875 -5.83125 10.02125 -7 10 C-7 8.68 -7 7.36 -7 6 C-5.02 5.67 -3.04 5.34 -1 5 C-1.66 4.67 -2.32 4.34 -3 4 C-3.66666667 2.66666667 -4.33333333 1.33333333 -5 0 C-3 -1 -3 -1 0 0 Z " transform="translate(45,68)" style="fill: #9FBA5D;"/><path d="M0 0 C1.32 0 2.64 0 4 0 C4.91658383 3.17053195 5.18832039 6.12823862 5.31640625 9.421875 C5.35830078 10.44667969 5.40019531 11.47148438 5.44335938 12.52734375 C5.48267578 13.59082031 5.52199219 14.65429688 5.5625 15.75 C5.60568359 16.82894531 5.64886719 17.90789062 5.69335938 19.01953125 C5.79928989 21.67956428 5.90136421 24.33968812 6 27 C3 25 3 25 2.55175781 22.78515625 C2.51920898 21.88667969 2.48666016 20.98820312 2.453125 20.0625 C2.41316406 19.08539063 2.37320313 18.10828125 2.33203125 17.1015625 C2.30496094 16.07804687 2.27789062 15.05453125 2.25 14 C2.20746094 12.97648437 2.16492188 11.95296875 2.12109375 10.8984375 C1.85040794 3.29918411 1.85040794 3.29918411 3 1 C2.01 0.67 1.02 0.34 0 0 Z " transform="translate(82,79)" style="fill: #8DA652;"/><path d="M0 0 C0.99 0.33 1.98 0.66 3 1 C4.39439664 1.06665376 5.79169875 1.08538199 7.1875 1.0625 C8.445625 1.041875 9.70375 1.02125 11 1 C11.33 2.65 11.66 4.3 12 6 C8.37 6 4.74 6 1 6 C1.33 5.34 1.66 4.68 2 4 C1.01 3.34 0.02 2.68 -1 2 C-0.67 1.34 -0.34 0.68 0 0 Z " transform="translate(42,51)" style="fill: #929760;"/><path d="M0 0 C0.66 0 1.32 0 2 0 C2.33 0.66 2.66 1.32 3 2 C4.65 2 6.3 2 8 2 C8 2.66 8 3.32 8 4 C10.31 4.66 12.62 5.32 15 6 C14.01 6.495 14.01 6.495 13 7 C13 7.66 13 8.32 13 9 C9.7 9 6.4 9 3 9 C3 8.34 3 7.68 3 7 C2.3507041 5.65812182 1.68268138 4.32520503 1 3 C0.67 2.01 0.34 1.02 0 0 Z " transform="translate(65,50)" style="fill: #6C7851;"/><path d="M0 0 C0.66 0 1.32 0 2 0 C3.17700048 4.62459244 3.11408412 9.07866462 3.0625 13.8125 C3.05798828 14.60076172 3.05347656 15.38902344 3.04882812 16.20117188 C3.03711312 18.13414761 3.01917998 20.06708393 3 22 C2.34 22 1.68 22 1 22 C0.00137301 14.63512596 -0.10331031 7.42686315 0 0 Z " transform="translate(41,27)" style="fill: #EEEF42;"/><path d="M0 0 C0.99 0 1.98 0 3 0 C3 5.61 3 11.22 3 17 C2.01 17 1.02 17 0 17 C0 11.39 0 5.78 0 0 Z " transform="translate(102,85)" style="fill: #A5C066;"/><path d="M0 0 C0.99 0 1.98 0 3 0 C3 5.61 3 11.22 3 17 C2.01 17 1.02 17 0 17 C0 11.39 0 5.78 0 0 Z " transform="translate(127,85)" style="fill: #A9C266;"/><path d="M0 0 C0.66 0 1.32 0 2 0 C2 0.66 2 1.32 2 2 C3.32 2.33 4.64 2.66 6 3 C6 4.32 6 5.64 6 7 C7.4166747 8.7511573 7.4166747 8.7511573 9 10 C8.34 10 7.68 10 7 10 C7 10.66 7 11.32 7 12 C4.69 12 2.38 12 0 12 C0.99 11.34 1.98 10.68 3 10 C2.34 9.34 1.68 8.68 1 8 C1.99 6.68 2.98 5.36 4 4 C2.35 4.33 0.7 4.66 -1 5 C-0.67 3.35 -0.34 1.7 0 0 Z " transform="translate(36,46)" style="fill: #1D2911;"/><path d="M0 0 C-0.33 0.66 -0.66 1.32 -1 2 C-2.92578125 2.30859375 -2.92578125 2.30859375 -5.3125 2.4375 C-8.0396593 2.70631379 -9.9616307 2.98369305 -12.5 4.0625 C-14.88481711 7.14288877 -14.7478522 10.15474599 -15 14 C-15.33 14 -15.66 14 -16 14 C-16.29033164 10.61924938 -16.42884188 7.37249725 -16 4 C-11.14338869 -1.53114066 -6.86371417 -1.18795053 0 0 Z " transform="translate(87,18)" style="fill: #43472B;"/><path d="M0 0 C2.875 -0.1875 2.875 -0.1875 6 0 C6.66 0.99 7.32 1.98 8 3 C7.1028125 3.1546875 7.1028125 3.1546875 6.1875 3.3125 C3.71756736 4.08876455 2.67748765 5.07088921 1 7 C1.66 7 2.32 7 3 7 C3 6.34 3 5.68 3 5 C4.98 5 6.96 5 9 5 C9.33 5.99 9.66 6.98 10 8 C7.36 8 4.72 8 2 8 C1.67 8.66 1.34 9.32 1 10 C0 9 0 9 -0.0625 6.6875 C-0.041875 5.800625 -0.02125 4.91375 0 4 C0 2.68 0 1.36 0 0 Z " transform="translate(56,51)" style="fill: #94A06A;"/><path d="M0 0 C0.66 0.33 1.32 0.66 2 1 C2 6.61 2 12.22 2 18 C-1.48354375 12.77468437 -2.30934332 7.1868663 -2 1 C-1.34 0.67 -0.68 0.34 0 0 Z " transform="translate(36,27)" style="fill: #E0E04E;"/><path d="M0 0 C3.67173807 0.85721511 4.98449688 3.43377656 7.0078125 6.46875 C6.0178125 6.46875 5.0278125 6.46875 4.0078125 6.46875 C3.5746875 5.97375 3.1415625 5.47875 2.6953125 4.96875 C1.00251598 3.18735701 1.00251598 3.18735701 -1.9921875 3.03125 C-5.09773911 3.15239818 -5.09773911 3.15239818 -6.7421875 5.46875 C-7.3609375 6.45875 -7.3609375 6.45875 -7.9921875 7.46875 C-8.6521875 7.46875 -9.3121875 7.46875 -9.9921875 7.46875 C-9.6796875 5.09375 -9.6796875 5.09375 -8.9921875 2.46875 C-5.81379594 0.34982229 -3.79330023 -0.05598967 0 0 Z " transform="translate(63.9921875,13.53125)" style="fill: #272A14;"/><path d="M0 0 C0.66 0.33 1.32 0.66 2 1 C1.01 2.32 0.02 3.64 -1 5 C0.32 4.67 1.64 4.34 3 4 C3.33 2.68 3.66 1.36 4 0 C5.65 0.33 7.3 0.66 9 1 C9 2.32 9 3.64 9 5 C7.68 5 6.36 5 5 5 C5 5.66 5 6.32 5 7 C3.00045254 7.04254356 0.99958364 7.04080783 -1 7 C-2 6 -2 6 -2.0625 3.4375 C-2.041875 2.633125 -2.02125 1.82875 -2 1 C-1.34 0.67 -0.68 0.34 0 0 Z " transform="translate(12,54)" style="fill: #645745;"/><path d="M0 0 C0.99 0.33 1.98 0.66 3 1 C2.73445313 1.71285156 2.46890625 2.42570312 2.1953125 3.16015625 C0.26265068 8.40091441 -1.56061176 13.60229412 -3 19 C-3.66 18.67 -4.32 18.34 -5 18 C-4.35702496 15.37426939 -3.71075589 12.74942697 -3.0625 10.125 C-2.88009766 9.37863281 -2.69769531 8.63226563 -2.50976562 7.86328125 C-1.11328125 2.2265625 -1.11328125 2.2265625 0 0 Z " transform="translate(26,35)" style="fill: #34471E;"/><path d="M0 0 C0.99 0.33 1.98 0.66 3 1 C3 2.98 3 4.96 3 7 C2.01 7.495 2.01 7.495 1 8 C1 8.66 1 9.32 1 10 C-1.64 10 -4.28 10 -7 10 C-6.67 9.34 -6.34 8.68 -6 8 C-4.35 8 -2.7 8 -1 8 C-1.20625 7.4225 -1.4125 6.845 -1.625 6.25 C-2.08661261 3.48032433 -1.42944945 2.35438733 0 0 Z " transform="translate(29,47)" style="fill: #7F8756;"/><path d="M0 0 C3.3 0 6.6 0 10 0 C10 1.32 10 2.64 10 4 C6.7 4 3.4 4 0 4 C0 2.68 0 1.36 0 0 Z " transform="translate(149,88)" style="fill: #171C0C;"/><path d="M0 0 C3.3 0 6.6 0 10 0 C10 1.32 10 2.64 10 4 C6.7 4 3.4 4 0 4 C0 2.68 0 1.36 0 0 Z " transform="translate(136,88)" style="fill: #171C0C;"/><path d="M0 0 C0.33 0 0.66 0 1 0 C1 5.28 1 10.56 1 16 C-0.918125 16.4640625 -0.918125 16.4640625 -2.875 16.9375 C-5.10101675 17.47605244 -6.94739999 17.9737 -9 19 C-8.6875 17.0625 -8.6875 17.0625 -8 15 C-5 14 -5 14 -1 14 C-0.67 9.38 -0.34 4.76 0 0 Z " transform="translate(130,67)" style="fill: #8AA050;"/><path d="M0 0 C1.32 0 2.64 0 4 0 C4 2.97 4 5.94 4 9 C2.68 9 1.36 9 0 9 C0 6.03 0 3.06 0 0 Z " transform="translate(114,93)" style="fill: #9CB05F;"/><path d="M0 0 C1.32 0 2.64 0 4 0 C4 2.97 4 5.94 4 9 C2.68 9 1.36 9 0 9 C0 6.03 0 3.06 0 0 Z " transform="translate(89,85)" style="fill: #A9BF6D;"/><path d="M0 0 C-0.50660156 0.68835938 -0.50660156 0.68835938 -1.0234375 1.390625 C-4.36308951 5.98192426 -4.36308951 5.98192426 -7 11 C-7.33 11 -7.66 11 -8 11 C-8 7.7 -8 4.4 -8 1 C-2.25 -1.125 -2.25 -1.125 0 0 Z " transform="translate(109,104)" style="fill: #8AA152;"/><path d="M0 0 C0.33 5.94 0.66 11.88 1 18 C0.01 18 -0.98 18 -2 18 C-2.02684312 15.18743719 -2.04676188 12.37512759 -2.0625 9.5625 C-2.07087891 8.76005859 -2.07925781 7.95761719 -2.08789062 7.13085938 C-2.0965143 5.08704779 -2.0522815 3.04316098 -2 1 C-1 0 -1 0 0 0 Z " transform="translate(126,85)" style="fill: #20230E;"/><path d="M0 0 C0.99 0 1.98 0 3 0 C3 4.62 3 9.24 3 14 C0 11 0 11 -0.29296875 8.30078125 C-0.25816406 7.31464844 -0.22335938 6.32851562 -0.1875 5.3125 C-0.16042969 4.31863281 -0.13335937 3.32476562 -0.10546875 2.30078125 C-0.07066406 1.54152344 -0.03585938 0.78226562 0 0 Z " transform="translate(59,69)" style="fill: #B1CB72;"/><path d="M0 0 C5.61 0 11.22 0 17 0 C17.33 0.66 17.66 1.32 18 2 C17.05125 1.95875 16.1025 1.9175 15.125 1.875 C11.89755144 1.65026182 11.89755144 1.65026182 10 4 C6.7 3.01 3.4 2.02 0 1 C0 0.67 0 0.34 0 0 Z " transform="translate(38,61)" style="fill: #BFCF7F;"/><path d="M0 0 C2.97 0.33 5.94 0.66 9 1 C8.67 1.99 8.34 2.98 8 4 C2.555 4.99 2.555 4.99 -3 6 C-3 5.34 -3 4.68 -3 4 C-2.360625 3.87625 -1.72125 3.7525 -1.0625 3.625 C-0.0415625 3.315625 -0.0415625 3.315625 1 3 C1.33 2.34 1.66 1.68 2 1 C1.34 0.67 0.68 0.34 0 0 Z " transform="translate(86,55)" style="fill: #2D3512;"/><path d="M0 0 C3.2710815 3.2710815 3.38308621 3.73988258 3.625 8.0625 C3.7917857 11.66869449 3.7917857 11.66869449 5 15 C2.525 14.01 2.525 14.01 0 13 C0 8.71 0 4.42 0 0 Z " transform="translate(108,90)" style="fill: #A4BF64;"/><path d="M0 0 C0.33 5.28 0.66 10.56 1 16 C0.01 16 -0.98 16 -2 16 C-2.02685095 13.52076199 -2.04676547 11.0418116 -2.0625 8.5625 C-2.07506836 7.50192383 -2.07506836 7.50192383 -2.08789062 6.41992188 C-2.09653588 4.61306441 -2.05220011 2.80612397 -2 1 C-1 0 -1 0 0 0 Z " transform="translate(68,87)" style="fill: #202213;"/><path d="M0 0 C0.66 0.66 1.32 1.32 2 2 C1.66555164 5.34448359 0.21127671 7.52337009 -2 10 C-2.66 10 -3.32 10 -4 10 C-3.5205537 5.78087253 -2.83374881 3.20336822 0 0 Z " transform="translate(31,32)" style="fill: #88CF83;"/><path d="M0 0 C3.3 0 6.6 0 10 0 C10.33 0.99 10.66 1.98 11 3 C10.0409375 3.1546875 10.0409375 3.1546875 9.0625 3.3125 C8.381875 3.539375 7.70125 3.76625 7 4 C6.67 4.99 6.34 5.98 6 7 C5.7525 6.38125 5.505 5.7625 5.25 5.125 C3.79371361 2.64931313 2.62187494 2.04874998 0 1 C0 0.67 0 0.34 0 0 Z " transform="translate(22,58)" style="fill: #575D35;"/><path d="M0 0 C4.29 0.33 8.58 0.66 13 1 C11.68 1.33 10.36 1.66 9 2 C9 2.66 9 3.32 9 4 C7.35 4.33 5.7 4.66 4 5 C2.68 3.35 1.36 1.7 0 0 Z " transform="translate(66,58)" style="fill: #4D583B;"/><path d="M0 0 C1.08667969 0.11085937 2.17335938 0.22171875 3.29296875 0.3359375 C4.12441406 0.43132813 4.95585938 0.52671875 5.8125 0.625 C4.8225 0.955 3.8325 1.285 2.8125 1.625 C2.07926204 3.64008358 2.07926204 3.64008358 1.8125 5.625 C0.8225 5.625 -0.1675 5.625 -1.1875 5.625 C-0.8575 4.635 -0.5275 3.645 -0.1875 2.625 C-3.1575 2.295 -6.1275 1.965 -9.1875 1.625 C-5.54331659 -0.80445561 -4.25826636 -0.4578781 0 0 Z " transform="translate(79.1875,53.375)" style="fill: #2D2E10;"/><path d="M0 0 C1.423125 1.2375 1.423125 1.2375 2.875 2.5 C7.38941118 5.79079255 11.61456845 5.48761453 17 5 C16.67 5.66 16.34 6.32 16 7 C6.05218189 7.78397866 6.05218189 7.78397866 1.8125 4.625 C0 2 0 2 0 0 Z " transform="translate(30,75)" style="fill: #1B2D09;"/><path d="M0 0 C0.66 0.99 1.32 1.98 2 3 C2.99 3 3.98 3 5 3 C4.67 3.66 4.34 4.32 4 5 C-2.6 4.67 -9.2 4.34 -16 4 C-16 3.67 -16 3.34 -16 3 C-10.72 3 -5.44 3 0 3 C0 2.01 0 1.02 0 0 Z " transform="translate(55,57)" style="fill: #242704;"/><path d="M0 0 C1.78821774 2.68232661 3.20142604 5.30288961 4.625 8.1875 C5.07101563 9.08855469 5.51703125 9.98960938 5.9765625 10.91796875 C6.31429688 11.60503906 6.65203125 12.29210937 7 13 C6.01 13 5.02 13 4 13 C-0.59225513 4.738041 -0.59225513 4.738041 0 0 Z " transform="translate(24,62)" style="fill: #22350F;"/><path d="M0 0 C0.66 0.33 1.32 0.66 2 1 C2 4.3 2 7.6 2 11 C0.35 11 -1.3 11 -3 11 C-2.34 10.34 -1.68 9.68 -1 9 C-0.53993654 6.79749008 -0.53993654 6.79749008 -0.375 4.375 C-0.30023438 3.55773437 -0.22546875 2.74046875 -0.1484375 1.8984375 C-0.09945312 1.27195312 -0.05046875 0.64546875 0 0 Z " transform="translate(118,93)" style="fill: #1F250D;"/><path d="M0 0 C2.97 0 5.94 0 9 0 C9.33 0.99 9.66 1.98 10 3 C7.36 3.33 4.72 3.66 2 4 C2 3.34 2 2.68 2 2 C1.34 2 0.68 2 0 2 C0 1.34 0 0.68 0 0 Z " transform="translate(42,49)" style="fill: #555621;"/><path d="M0 0 C0.99 0.33 1.98 0.66 3 1 C2.0409375 1.7425 2.0409375 1.7425 1.0625 2.5 C-1.81515269 5.98806387 -1.70230736 8.53461041 -2 13 C-2.33 13 -2.66 13 -3 13 C-3.08121924 11.39667209 -3.13929134 9.79215974 -3.1875 8.1875 C-3.22230469 7.29417969 -3.25710937 6.40085937 -3.29296875 5.48046875 C-2.95081002 2.58352485 -2.24606427 1.77444972 0 0 Z " transform="translate(74,19)" style="fill: #515246;"/><path d="M0 0 C2.86697492 1.28519565 4.97607712 2.57129254 7 5 C7 5.66 7 6.32 7 7 C3.12867972 6.42647107 0.91827204 4.51295648 -2 2 C-1.34 1.34 -0.68 0.68 0 0 Z " transform="translate(65,11)" style="fill: #DDEE88;"/><path d="M0 0 C1.65 0 3.3 0 5 0 C4.34 0.66 3.68 1.32 3 2 C2.32348793 4.19704511 2.32348793 4.19704511 1.875 6.625 C1.70742187 7.44226563 1.53984375 8.25953125 1.3671875 9.1015625 C1.24601562 9.72804688 1.12484375 10.35453125 1 11 C0.67 11 0.34 11 0 11 C0 7.37 0 3.74 0 0 Z " transform="translate(112,91)" style="fill: #1F260B;"/><path d="M0 0 C2.475 0.495 2.475 0.495 5 1 C5 1.66 5 2.32 5 3 C5.66 3.33 6.32 3.66 7 4 C6.01 4.99 5.02 5.98 4 7 C0 2.25 0 2.25 0 0 Z " transform="translate(32,70)" style="fill: #A9C562;"/><path d="M0 0 C3.3 0 6.6 0 10 0 C9.67 0.99 9.34 1.98 9 3 C5.7 3 2.4 3 -1 3 C-0.67 2.01 -0.34 1.02 0 0 Z " transform="translate(69,56)" style="fill: #AFA072;"/><path d="M0 0 C2 1 2 1 2 1 Z M-6 2 C-4.33333333 2 -2.66666667 2 -1 2 C-1.66 3.98 -2.32 5.96 -3 8 C-3.99 8 -4.98 8 -6 8 C-6 6.02 -6 4.04 -6 2 Z " transform="translate(30,45)" style="fill: #8FC177;"/><path d="M0 0 C2.25 0.25 2.25 0.25 4 1 C4 1.66 4 2.32 4 3 C1.64561267 4.42944945 0.51967567 5.08661261 -2.25 4.625 C-2.8275 4.41875 -3.405 4.2125 -4 4 C-2.25 1.9375 -2.25 1.9375 0 0 Z " transform="translate(78,41)" style="fill: #91D677;"/><path d="M0 0 C0 0.66 0 1.32 0 2 C-0.99 2.33 -1.98 2.66 -3 3 C-3.33 3.99 -3.66 4.98 -4 6 C-4.99 6 -5.98 6 -7 6 C-6.625 3.5625 -6.625 3.5625 -6 1 C-4 0 -4 0 0 0 Z " transform="translate(118,82)" style="fill: #334015;"/><path d="M0 0 C0 3 0 3 0 3 Z M-5 5 C-4.01 5.33 -3.02 5.66 -2 6 C-3.98 8.97 -3.98 8.97 -6 12 C-6.625 10.1875 -6.625 10.1875 -7 8 C-6.34 7.01 -5.68 6.02 -5 5 Z " transform="translate(32,37)" style="fill: #ACF48D;"/><path d="M0 0 C0.86625 0.495 0.86625 0.495 1.75 1 C4.19883862 2.27075898 4.19883862 2.27075898 8 2 C8.66 2.33 9.32 2.66 10 3 C9.01 4.32 8.02 5.64 7 7 C7 6.34 7 5.68 7 5 C6.21625 4.87625 5.4325 4.7525 4.625 4.625 C2 4 2 4 0 2 C0 1.34 0 0.68 0 0 Z " transform="translate(75,33)" style="fill: #3E4334;"/><path d="M0 0 C2.99329122 1.23253168 4.26881368 3.28959763 6.125 5.875 C3.125 5.875 3.125 5.875 1.6875 4.5 C1.171875 3.96375 0.65625 3.4275 0.125 2.875 C-1.97489652 1.69925289 -1.97489652 1.69925289 -3.875 0.875 C-1.875 -0.125 -1.875 -0.125 0 0 Z " transform="translate(64.875,14.125)" style="fill: #2F3417;"/><path d="M0 0 C2.475 0.99 2.475 0.99 5 2 C4.01 2.495 4.01 2.495 3 3 C3 3.66 3 4.32 3 5 C0.69 5 -1.62 5 -4 5 C-3.525625 4.54625 -3.05125 4.0925 -2.5625 3.625 C-0.90972192 2.06741796 -0.90972192 2.06741796 0 0 Z " transform="translate(40,53)" style="fill: #32371E;"/><path d="M0 0 C0.99 0.33 1.98 0.66 3 1 C3 3.97 3 6.94 3 10 C2.34 8.68 1.68 7.36 1 6 C0.01 5.67 -0.98 5.34 -2 5 C-1.34 5 -0.68 5 0 5 C0 3.35 0 1.7 0 0 Z " transform="translate(95,99)" style="fill: #91AD58;"/><path d="M0 0 C1.32 0 2.64 0 4 0 C4 1.65 4 3.3 4 5 C2.35 5 0.7 5 -1 5 C-0.67 3.35 -0.34 1.7 0 0 Z " transform="translate(114,85)" style="fill: #A6B865;"/><path d="M0 0 C0.66 0.33 1.32 0.66 2 1 C1.34 4.63 0.68 8.26 0 12 C-0.33 12 -0.66 12 -1 12 C-1.02687279 10.18757948 -1.04633715 8.37504767 -1.0625 6.5625 C-1.07410156 5.55316406 -1.08570313 4.54382813 -1.09765625 3.50390625 C-1 1 -1 1 0 0 Z " transform="translate(57,67)" style="fill: #252B0B;"/><path d="M0 0 C2 2 2 2 2.1953125 4.3828125 C2.17210937 5.28773437 2.14890625 6.19265625 2.125 7.125 C2.10695312 8.03507812 2.08890625 8.94515625 2.0703125 9.8828125 C2.03550781 10.93082031 2.03550781 10.93082031 2 12 C0.48046875 10.79296875 0.48046875 10.79296875 -1 9 C-1.07421875 6.73828125 -1.07421875 6.73828125 -0.6875 4.3125 C-0.56761719 3.50425781 -0.44773438 2.69601563 -0.32421875 1.86328125 C-0.21722656 1.24839844 -0.11023437 0.63351563 0 0 Z " transform="translate(34,42)" style="fill: #7DAA74;"/><path d="M0 0 C0.66 0 1.32 0 2 0 C2.99 1.98 3.98 3.96 5 6 C3.35 6 1.7 6 0 6 C-1.125 2.25 -1.125 2.25 0 0 Z " transform="translate(60,42)" style="fill: #8DCF76;"/><path d="M0 0 C0.33 0 0.66 0 1 0 C1.1875 2.375 1.1875 2.375 1 5 C-2 7 -2 7 -6 7 C-6 6.34 -6 5.68 -6 5 C-5.38125 4.9175 -4.7625 4.835 -4.125 4.75 C-1.81562433 4.18741541 -1.81562433 4.18741541 -0.75 1.9375 C-0.5025 1.298125 -0.255 0.65875 0 0 Z " transform="translate(74,98)" style="fill: #223108;"/><path d="M0 0 C2.31 0 4.62 0 7 0 C7.33 0.99 7.66 1.98 8 3 C7.071875 2.773125 6.14375 2.54625 5.1875 2.3125 C2.03173152 1.63680017 2.03173152 1.63680017 0.125 3.4375 C-0.24625 3.953125 -0.6175 4.46875 -1 5 C-0.67 3.35 -0.34 1.7 0 0 Z " transform="translate(100,83)" style="fill: #222A04;"/><path d="M0 0 C2 0.25 2 0.25 4 1 C4.33 1.99 4.66 2.98 5 4 C3.35 4.33 1.7 4.66 0 5 C-0.5625 3.0625 -0.5625 3.0625 -1 1 C-0.67 0.67 -0.34 0.34 0 0 Z " transform="translate(39,69)" style="fill: #343D1D;"/><path d="M0 0 C1.98 0 3.96 0 6 0 C5.67 0.99 5.34 1.98 5 3 C3.02 3.33 1.04 3.66 -1 4 C-0.67 2.68 -0.34 1.36 0 0 Z " transform="translate(82,56)" style="fill: #DBDAD7;"/><path d="M0 0 C1.32 0 2.64 0 4 0 C3.67 1.65 3.34 3.3 3 5 C1.68 4.34 0.36 3.68 -1 3 C-0.67 2.01 -0.34 1.02 0 0 Z " transform="translate(59,27)" style="fill: #3A383D;"/><path d="M0 0 C0.66 0 1.32 0 2 0 C2 1.65 2 3.3 2 5 C-0.31 5.33 -2.62 5.66 -5 6 C-4.360625 5.566875 -3.72125 5.13375 -3.0625 4.6875 C-0.73253997 3.08760823 -0.73253997 3.08760823 0 0 Z " transform="translate(93,99)" style="fill: #283B0A;"/><path d="M0 0 C0.66 0 1.32 0 2 0 C2 1.98 2 3.96 2 6 C0.35 6 -1.3 6 -3 6 C-2 4 -1 2 0 0 Z " transform="translate(14,53)" style="fill: #B0857D;"/><path d="M0 0 C0.66 0 1.32 0 2 0 C4 3 4 3 4 7 C2.68 7.33 1.36 7.66 0 8 C0 7.34 0 6.68 0 6 C0.66 6 1.32 6 2 6 C1.34 4.02 0.68 2.04 0 0 Z " transform="translate(80,38)" style="fill: #21380F;"/><path d="M0 0 C0.33 0 0.66 0 1 0 C1 3.3 1 6.6 1 10 C1.99 10.33 2.98 10.66 4 11 C2.68 11.33 1.36 11.66 0 12 C-1.03159626 8.90521121 -0.97482862 7.47368607 -0.5625 4.3125 C-0.46066406 3.50425781 -0.35882813 2.69601563 -0.25390625 1.86328125 C-0.17011719 1.24839844 -0.08632812 0.63351563 0 0 Z " transform="translate(72,23)" style="fill: #171711;"/><path d="M0 0 C0.33 0 0.66 0 1 0 C1.1875 2.875 1.1875 2.875 1 6 C-2 8 -2 8 -4.1875 7.625 C-4.785625 7.41875 -5.38375 7.2125 -6 7 C-5.071875 6.6596875 -5.071875 6.6596875 -4.125 6.3125 C-1.38589791 4.62070165 -0.94975528 3.00755839 0 0 Z " transform="translate(107,97)" style="fill: #242D0E;"/><path d="M0 0 C1.52299523 2.93720508 2.80100302 5.9168649 4 9 C1.525 8.01 1.525 8.01 -1 7 C-0.67 4.69 -0.34 2.38 0 0 Z " transform="translate(122,96)" style="fill: #9EB95E;"/><path d="M0 0 C0.66 0.33 1.32 0.66 2 1 C2.625 4.0625 2.625 4.0625 3 7 C1.68 6.67 0.36 6.34 -1 6 C-1.042721 4.33388095 -1.04063832 2.66617115 -1 1 C-0.67 0.67 -0.34 0.34 0 0 Z " transform="translate(39,42)" style="fill: #B3B08E;"/></svg>