<?xml version="1.0" standalone="no"?><!DOCTYPE svg PUBLIC "-//W3C//DTD SVG 1.1//EN" "http://www.w3.org/Graphics/SVG/1.1/DTD/svg11.dtd"><svg t="1653643519286" class="icon" viewBox="0 0 1024 1024" version="1.1" xmlns="http://www.w3.org/2000/svg" p-id="8215" width="48" height="48" xmlns:xlink="http://www.w3.org/1999/xlink"><defs><style type="text/css">@font-face { font-family: feedback-iconfont; src: url("//at.alicdn.com/t/font_1031158_u69w8yhxdu.woff2?t=1630033759944") format("woff2"), url("//at.alicdn.com/t/font_1031158_u69w8yhxdu.woff?t=1630033759944") format("woff"), url("//at.alicdn.com/t/font_1031158_u69w8yhxdu.ttf?t=1630033759944") format("truetype"); }
</style></defs><path d="M648.479968 0.00064h-511.99968A48.959969 48.959969 0 0 0 100.64031 15.36063 54.399966 54.399966 0 0 0 85.28032 51.200608v921.599424a48.959969 48.959969 0 0 0 15.35999 35.839978A50.559968 50.559968 0 0 0 136.480288 1024h751.039531a49.279969 49.279969 0 0 0 35.839977-15.35999 50.559968 50.559968 0 0 0 15.359991-35.839978V290.240459z" fill="#A5D940" p-id="8216"></path><path d="M938.719787 290.240459H699.679936a52.479967 52.479967 0 0 1-51.199968-51.199968V0.00064l290.239819 290.239819z" fill="#C4EAFF" p-id="8217"></path><path d="M407.520119 459.520353v29.759981H331.360166v198.719876H296.800188v-198.719876H220.320236v-29.759981zM462.240084 459.520353l55.679966 82.559948 55.679965-82.559948h42.559973l-77.439951 110.399931 82.879948 118.079926h-42.559974l-61.119961-90.559943-61.119962 90.559943h-42.559974l82.239949-118.079926-76.799952-110.399931zM815.199864 459.520353v29.759981h-76.159953v198.719876h-34.559978v-198.719876H629.27998v-29.759981z" fill="#FFFFFF" p-id="8218"></path></svg>