<?xml version="1.0" standalone="no"?><!DOCTYPE svg PUBLIC "-//W3C//DTD SVG 1.1//EN" "http://www.w3.org/Graphics/SVG/1.1/DTD/svg11.dtd"><svg t="1655351318268" class="icon" viewBox="0 0 1024 1024" version="1.1" xmlns="http://www.w3.org/2000/svg" p-id="8004" width="32" height="32" xmlns:xlink="http://www.w3.org/1999/xlink"><defs><style type="text/css">@font-face { font-family: feedback-iconfont; src: url("//at.alicdn.com/t/font_1031158_u69w8yhxdu.woff2?t=1630033759944") format("woff2"), url("//at.alicdn.com/t/font_1031158_u69w8yhxdu.woff?t=1630033759944") format("woff"), url("//at.alicdn.com/t/font_1031158_u69w8yhxdu.ttf?t=1630033759944") format("truetype"); }
</style></defs><path d="M192 0h448.1536L960 320v576c0 70.6944-57.3056 128-128 128H192C121.3056 1024 64 966.6944 64 896V128C64 57.3056 121.3056 0 192 0z" fill="#2696FF" p-id="8005"></path><path d="M417.7536 546.176h-60.8256v170.5728h-40.9216V546.176H256V512h161.7536v34.176z m94.3872 36.416L549.376 512h47.0528l-57.8304 101.5296 59.328 103.2192h-47.6032l-38.1824-71.7184-38.1952 71.7184h-47.6032l59.3408-103.2192L427.8528 512h47.0528l37.2352 70.592zM768 546.176h-60.8256v170.5728H666.24V546.176h-60.0064V512H768v34.176z" fill="#FFFFFF" opacity=".9" p-id="8006"></path><path d="M640 0l320 320H768c-70.6944 0-128-57.3056-128-128V0z" fill="#8FC6FE" p-id="8007"></path></svg>